<svg width="50" height="50" viewBox="0 0 50 50" fill="black" xmlns="http://www.w3.org/2000/svg">
<path fill-rule="evenodd" clip-rule="evenodd" d="M3.12489 25C3.12489 24.5856 3.28951 24.1882 3.58254 23.8952C3.87556 23.6021 4.27299 23.4375 4.68739 23.4375H41.5405L31.7061 13.6063C31.5609 13.461 31.4456 13.2885 31.367 13.0987C31.2884 12.9089 31.2479 12.7055 31.2479 12.5C31.2479 12.2946 31.2884 12.0911 31.367 11.9013C31.4456 11.7115 31.5609 11.539 31.7061 11.3938C31.8514 11.2485 32.0239 11.1333 32.2137 11.0546C32.4035 10.976 32.6069 10.9355 32.8124 10.9355C33.0178 10.9355 33.2213 10.976 33.4111 11.0546C33.6009 11.1333 33.7734 11.2485 33.9186 11.3938L46.4186 23.8938C46.5642 24.0389 46.6796 24.2113 46.7584 24.4012C46.8371 24.591 46.8777 24.7945 46.8777 25C46.8777 25.2055 46.8371 25.409 46.7584 25.5989C46.6796 25.7887 46.5642 25.9611 46.4186 26.1063L33.9186 38.6063C33.7734 38.7515 33.6009 38.8668 33.4111 38.9454C33.2213 39.024 33.0178 39.0645 32.8124 39.0645C32.6069 39.0645 32.4035 39.024 32.2137 38.9454C32.0239 38.8668 31.8514 38.7515 31.7061 38.6063C31.5609 38.461 31.4456 38.2885 31.367 38.0987C31.2884 37.9089 31.2479 37.7055 31.2479 37.5C31.2479 37.2946 31.2884 37.0911 31.367 36.9013C31.4456 36.7115 31.5609 36.539 31.7061 36.3938L41.5405 26.5625H4.68739C4.27299 26.5625 3.87556 26.3979 3.58254 26.1049C3.28951 25.8118 3.12489 25.4144 3.12489 25Z" />
</svg>
