<svg width="30" height="26" viewBox="0 0 30 26" fill="transparent" stroke="#9A9A9A" xmlns="http://www.w3.org/2000/svg">
<path d="M26.0497 3.76258C25.4112 3.12384 24.6532 2.61714 23.8189 2.27144C22.9845 1.92574 22.0903 1.7478 21.1872 1.7478C20.2841 1.7478 19.3898 1.92574 18.5555 2.27144C17.7211 2.61714 16.9631 3.12384 16.3247 3.76258L14.9997 5.08758L13.6747 3.76258C12.385 2.47297 10.636 1.74847 8.81216 1.74847C6.98837 1.74847 5.23928 2.47297 3.94966 3.76258C2.66005 5.0522 1.93555 6.80129 1.93555 8.62508C1.93555 10.4489 2.66005 12.198 3.94966 13.4876L5.27466 14.8126L14.9997 24.5376L24.7247 14.8126L26.0497 13.4876C26.6884 12.8491 27.1951 12.0911 27.5408 11.2568C27.8865 10.4225 28.0644 9.52819 28.0644 8.62508C28.0644 7.72198 27.8865 6.82771 27.5408 5.99339C27.1951 5.15907 26.6884 4.40103 26.0497 3.76258V3.76258Z"  stroke-width="2.5" stroke-linecap="round" stroke-linejoin="round"/>
</svg>
