<svg width="100" height="100" viewBox="0 0 100 100" fill="black" xmlns="http://www.w3.org/2000/svg">
<path d="M43.75 18.75H56.25C56.25 17.0924 55.5915 15.5027 54.4194 14.3306C53.2473 13.1585 51.6576 12.5 50 12.5C48.3424 12.5 46.7527 13.1585 45.5806 14.3306C44.4085 15.5027 43.75 17.0924 43.75 18.75V18.75ZM37.5 18.75C37.5 15.4348 38.817 12.2554 41.1612 9.91117C43.5054 7.56696 46.6848 6.25 50 6.25C53.3152 6.25 56.4946 7.56696 58.8388 9.91117C61.183 12.2554 62.5 15.4348 62.5 18.75H87.5C88.3288 18.75 89.1237 19.0792 89.7097 19.6653C90.2958 20.2513 90.625 21.0462 90.625 21.875C90.625 22.7038 90.2958 23.4987 89.7097 24.0847C89.1237 24.6708 88.3288 25 87.5 25H83.975L76.4437 80.2375C75.933 83.9808 74.0832 87.4123 71.2369 89.8967C68.3906 92.381 64.7405 93.7499 60.9625 93.75H39.0375C35.2595 93.7499 31.6094 92.381 28.7631 89.8967C25.9168 87.4123 24.067 83.9808 23.5563 80.2375L16.025 25H12.5C11.6712 25 10.8763 24.6708 10.2903 24.0847C9.70424 23.4987 9.375 22.7038 9.375 21.875C9.375 21.0462 9.70424 20.2513 10.2903 19.6653C10.8763 19.0792 11.6712 18.75 12.5 18.75H37.5ZM43.75 40.625C43.75 39.7962 43.4208 39.0013 42.8347 38.4153C42.2487 37.8292 41.4538 37.5 40.625 37.5C39.7962 37.5 39.0013 37.8292 38.4153 38.4153C37.8292 39.0013 37.5 39.7962 37.5 40.625V71.875C37.5 72.7038 37.8292 73.4987 38.4153 74.0847C39.0013 74.6708 39.7962 75 40.625 75C41.4538 75 42.2487 74.6708 42.8347 74.0847C43.4208 73.4987 43.75 72.7038 43.75 71.875V40.625ZM59.375 37.5C58.5462 37.5 57.7513 37.8292 57.1653 38.4153C56.5792 39.0013 56.25 39.7962 56.25 40.625V71.875C56.25 72.7038 56.5792 73.4987 57.1653 74.0847C57.7513 74.6708 58.5462 75 59.375 75C60.2038 75 60.9987 74.6708 61.5847 74.0847C62.1708 73.4987 62.5 72.7038 62.5 71.875V40.625C62.5 39.7962 62.1708 39.0013 61.5847 38.4153C60.9987 37.8292 60.2038 37.5 59.375 37.5Z" />
</svg>
